Simulation
nRows=44
nColumns=15
endheader
time  TH_x TH_y TH_z SC_y  SC_z  SC_x  AC_y  AC_z  AC_x  GH_y  GH_z  GH_yy  EL_x  PS_y
2.8725  0.000000  0.000000  0.000000  -37.22480837178853  1.2936866962389664  -26.101995475603815  39.14501769693052  14.417073887129728  15.436625195494141  26.977488465763205  14.717767796134007  -16.966744689032367  13.994164126277733  120.000000
2.92995  0.000000  0.000000  0.000000  -38.63095508161481  1.8960601303793148  -24.947050966187106  38.65086975160183  15.0466027147627  14.745862241032295  39.15974807288705  12.19434229140315  -24.354974726274566  14.346943990724972  120.000000
2.9874  0.000000  0.000000  0.000000  -40.09011105669726  2.333688723455282  -23.350416203483  38.58175863098651  15.467221504053814  13.857587235052154  53.142774285509255  10.462817002593368  -34.259333324270735  14.795850789602554  120.000000
3.0448500000000003  0.000000  0.000000  0.000000  -41.52272641372944  2.6522239110779533  -21.401232906035474  38.85102620051972  15.651858836349836  12.783961321505668  67.83975793268891  9.487185776471396  -45.66848162824343  15.29562164092992  120.000000
3.1023  0.000000  0.000000  0.000000  -42.86392737236329  2.904537511371618  -19.19920665810835  39.34731876798152  15.58522130228502  11.555523062429925  81.57812661868351  9.125891219672072  -56.88550500759084  15.800366338383748  120.000000
3.15975  0.000000  0.000000  0.000000  -44.06844958184101  3.1288935317154167  -16.84690956161347  39.954507150760115  15.273801003381298  10.223999563500033  93.02971670624962  9.168417144181177  -66.48332140249079  16.275031859979244  120.000000
3.2172  0.000000  0.000000  0.000000  -45.10784992670707  3.345476492199213  -14.454479624515358  40.5677094528429  14.752320800373251  8.852156317397883  101.75363517508119  9.41045380962835  -73.88226063880145  16.703811950584594  120.000000
3.2746500000000003  0.000000  0.000000  0.000000  -45.96145924723518  3.567170787663935  -12.124479523283147  41.10971412366754  14.069257704731674  7.489422616238894  107.94229299033034  9.700569890001919  -79.12530378548739  17.090213327071776  120.000000
3.3321  0.000000  0.000000  0.000000  -46.612841820365325  3.796492852351331  -9.933210960562095  41.54031260171554  13.269218331774802  6.157142703149858  111.97390718738839  9.951587829542044  -82.46007341230924  17.4477366740893  120.000000
3.38955  0.000000  0.000000  0.000000  -47.0526231505692  4.025543665184972  -7.931014214550464  41.848476619629665  12.380639928014215  4.870391426102754  114.19070643528835  10.127254362461784  -84.13417189361645  17.789941313182307  120.000000
3.447  0.000000  0.000000  0.000000  -47.27927797511757  4.241299900736729  -6.151096930639874  42.04062026128356  11.41834513318132  3.6506408624435522  114.85657715584006  10.225122840989568  -84.35735264436563  18.12654494716487  120.000000
3.5044500000000003  0.000000  0.000000  0.000000  -47.2958940719864  4.42903080540302  -4.620820871604287  42.12829624610383  10.399143058048146  2.520550764822229  114.17718901201135  10.26730746039582  -83.31853859702099  18.463564535644085  120.000000
3.5619  0.000000  0.000000  0.000000  -47.10020077115838  4.573436276394787  -3.3673406501122534  42.11879987527154  9.352680467111814  1.4996676274241199  112.35139410702693  10.290654999087883  -81.22867265311244  18.803847943153777  120.000000
3.61935  0.000000  0.000000  0.000000  -46.68383012502692  4.663787195583729  -2.4033847558498587  42.02110930795579  8.309238444108733  0.5985380346602183  109.60058123282245  10.333972466167559  -78.339028654545  19.15189148624374  120.000000
3.6768  0.000000  0.000000  0.000000  -46.03782047287996  4.691148239775632  -1.7092792780409982  41.85854344237055  7.280675132614207  -0.18379529946714887  106.14466790394253  10.416074076886336  -74.91280601136559  19.511638907727505  120.000000
3.7342500000000003  0.000000  0.000000  0.000000  -45.16349360092473  4.645703001754918  -1.2460992036060479  41.676523423227806  6.263494841596598  -0.8399990126554273  102.12306136251945  10.52062244218094  -71.13961372251805  19.88408364803804  120.000000
3.7917  0.000000  0.000000  0.000000  -44.080680951302014  4.520552701385048  -0.9708166182187569  41.54427678478126  5.244703912812147  -1.3403982178597684  97.5088708288332  10.60327793794854  -67.04132306108568  20.26719934431339  120.000000
3.84915  0.000000  0.000000  0.000000  -42.828823897322884  4.310148041746719  -0.8488990362812343  41.5483926451848  4.212077637781629  -1.637277517182603  92.04089600176137  10.613961891491762  -62.39142610268434  20.65669584540331  120.000000
3.9066  0.000000  0.000000  0.000000  -41.45986697476051  4.0113719857197045  -0.8556050967345299  41.770224025190224  3.156597547743142  -1.6751904493418974  85.21981471401227  10.52290968303639  -56.69486741844512  21.0488001852163  120.000000
3.9640500000000003  0.000000  0.000000  0.000000  -40.039903423191426  3.6212623153044015  -0.9702642504290673  42.26922489897898  2.0698077007025057  -1.4051610052260675  76.2975847172611  10.361767051966064  -49.17701154586961  21.441041016126093  120.000000
4.0215  0.000000  0.000000  0.000000  -38.64262909344742  3.134323093394959  -1.1773853752052659  43.092342755435105  0.940474336917573  -0.8015200096252425  64.42033572105537  10.293400137377217  -38.931033573755705  21.830077501667034  120.000000
4.07895  0.000000  0.000000  0.000000  -37.339735089571604  2.524028278497206  -1.4797968317319254  44.26713568675319  -0.24646126826444384  0.15253528322341128  49.374429845568415  10.664433331227324  -25.664307088699964  22.21013331678563  120.000000
4.1364  0.000000  0.000000  0.000000  -36.20175481410231  1.7482947414172436  -1.9041518829120205  45.76280328349738  -1.5262688615667956  1.5079393377983734  32.823065895727595  11.93206831320103  -10.94634504534044  22.56904591850515  120.000000
4.19385  0.000000  0.000000  0.000000  -35.265908623792726  0.7771387771516486  -2.47983258094826  47.54110509105994  -2.9551894830503715  3.2804488518215003  17.861322183269806  14.43042529908084  2.2167654881741203  22.888986125359892  120.000000
4.2513000000000005  0.000000  0.000000  0.000000  -34.53317332212301  -0.3860785072498121  -3.2066905918013355  49.54140368438536  -4.577341127382395  5.3909124314175365  6.411784071311208  18.155978173493736  11.963174075826926  23.13236941491208  120.000000
4.30875  0.000000  0.000000  0.000000  -34.02682306603116  -1.6920986537946818  -4.024592811355806  51.612483141782384  -6.411083214364346  7.7241668965983425  -1.5885418052575357  22.809832459351732  18.395572635510053  23.262516892659452  120.000000
4.3662  0.000000  0.000000  0.000000  -33.76182308965845  -3.0727159688212233  -4.873594280657453  53.60680384417833  -8.360643607485784  10.179219697981043  -6.894594827644262  27.949937531891596  22.30228993849849  23.282153621796585  120.000000
4.42365  0.000000  0.000000  0.000000  -33.70573826865194  -4.3900636768906525  -5.712232078852153  55.445042999612006  -10.19018336308995  12.671399978086985  -10.193487989377136  33.08992413640049  24.37894968616792  23.236618546980825  120.000000
4.4811  0.000000  0.000000  0.000000  -33.82141362622845  -5.44955697971266  -6.456761025441619  57.11828575138563  -11.615271328148175  15.068879449167648  -11.994270585556585  37.82387730307714  25.094576598785967  23.20240520997306  120.000000
4.53855  0.000000  0.000000  0.000000  -34.088991348582994  -6.112413226284652  -6.986391085971474  58.68312391967794  -12.389022641277071  17.192018479696735  -12.660144017155947  41.915763145368295  24.731991309495893  23.235152296899006  120.000000
4.596  0.000000  0.000000  0.000000  -34.56845206999326  -6.261414805063515  -7.1722672511519825  60.23652394809018  -12.414891534482006  18.941773905850052  -12.459897101508096  45.28444204817722  23.471757905441926  23.368105976235793  120.000000
4.65345  0.000000  0.000000  0.000000  -35.35350650279134  -5.778872244266487  -6.885322054290995  61.861173822283334  -11.804249840269069  20.352026584885806  -11.61121052278899  47.965710898115404  21.466748630801153  23.60843682985179  120.000000
4.7109000000000005  0.000000  0.000000  0.000000  -36.46542044828515  -4.569868196246045  -5.9886477892304955  63.586596741242026  -10.862790832610276  21.56349145336828  -10.327244339468768  50.08268042770453  18.877155515370326  23.907225779148597  120.000000
4.76835  0.000000  0.000000  0.000000  -37.792541529644396  -2.633889515720733  -4.366957767938026  65.35877440309261  -9.898138660221615  22.688510202168676  -8.881179819423686  51.746574767848905  15.898417341788976  24.17588162548202  120.000000
4.8258  0.000000  0.000000  0.000000  -39.109744335000315  -0.13656606973744598  -1.9764644747005198  67.05760780500556  -9.018035346265039  23.68108000708298  -7.560968052961925  52.9893767193282  12.736082103682351  24.327283632853185  120.000000
4.88325  0.000000  0.000000  0.000000  -40.25777716338129  2.6852844053416125  1.1584718371240177  68.5754426460663  -8.253206108306914  24.462666930713986  -6.535099197896401  53.8586908134708  9.52234128486896  24.306610825154998  120.000000
4.9407  0.000000  0.000000  0.000000  -41.25916108430932  5.619222896704504  4.949476128486151  69.83791039762762  -7.6622140088314  25.008885129714347  -5.805187019396682  54.46177263049153  6.304885819188509  24.09760270359883  120.000000
4.99815  0.000000  0.000000  0.000000  -42.257195512268765  8.485509289881016  9.250739032072739  70.78067559808616  -7.289119766934907  25.302203297561825  -5.2439431498268645  54.91015672425916  3.0847921318594214  23.71764918314116  120.000000
5.0556  0.000000  0.000000  0.000000  -43.37383713286234  11.148584213838793  13.902738992285594  71.35543850101973  -7.163560611076829  25.332367384793468  -4.713675226797041  55.29788041789098  -0.12248748116853594  23.196156297879554  120.000000
5.11305  0.000000  0.000000  0.000000  -44.62396178073546  13.517566961897936  18.753165216155747  71.55347595577578  -7.286945430297912  25.109099248426098  -4.148573765048222  55.68898948914448  -3.258402911118441  22.56689415046339  120.000000
5.1705000000000005  0.000000  0.000000  0.000000  -45.93941404535756  15.536105251681878  23.649890557094263  71.41469925675278  -7.62849777505904  24.664037353376578  -3.562174841105648  56.11406439959708  -6.23123081803238  21.871938915514388  120.000000
5.22795  0.000000  0.000000  0.000000  -47.23140344710072  17.174281928234954  28.43917144325372  71.01455530129742  -8.135216056534329  24.04412447556849  -3.015542482670737  56.573500002921094  -8.94269339640591  21.161635267612432  120.000000
5.2854  0.000000  0.000000  0.000000  -48.42427539337932  18.427178586376403  32.9740906619295  70.45086264537625  -8.741185630181672  23.30860924117082  -2.574554823805976  57.04010414146273  -11.317681077886208  20.488087118864517  120.000000
5.34285  0.000000  0.000000  0.000000  -49.46649036849174  19.318593069876787  37.11670603299805  69.81911253438138  -9.378342884051493  22.52562464511352  -2.272873510926457  57.452292413262626  -13.325107605078685  19.891130756820825  120.000000
